# xmcd CD database file
#
# Track frame offsets:
#	150
#	36800
#	80643
#	151507
#	194572
#
# Disc length: 3073 seconds
#
# Revision: 0
# Processed by: cddbd v1.5.1PL0 Copyright (c) Steve Scherf et al.
# Submitted via: CDex 1.51
#
DISCID=340bff05
DTITLE=No Vibrato - Here and Now
DYEAR=1999
DGENRE=Jazz
TTITLE0=La Face Cachée du soleil
TTITLE1=Hymn
TTITLE2=After the Big Bang
TTITLE3=When We Were Happy
TTITLE4=No, Kid.
EXTD=YEAR: 1999
EXTT0=
EXTT1=
EXTT2=
EXTT3=
EXTT4=
PLAYORDER=
